<?xml version="1.0" encoding="UTF-8" standalone="no"?>
<svg
   height="24px"
   viewBox="0 -960 960 960"
   width="24px"
   fill="currentColor"
   version="1.1"
   id="svg100"
   sodipodi:docname="logo.svg"
   inkscape:version="1.2.2 (b0a8486541, 2022-12-01)"
   xml:space="preserve"
   inkscape:export-filename="logo.png"
   inkscape:export-xdpi="512"
   inkscape:export-ydpi="512"
   xmlns:inkscape="http://www.inkscape.org/namespaces/inkscape"
   xmlns:sodipodi="http://sodipodi.sourceforge.net/DTD/sodipodi-0.dtd"
   xmlns:xlink="http://www.w3.org/1999/xlink"
   xmlns="http://www.w3.org/2000/svg"
   xmlns:svg="http://www.w3.org/2000/svg"><defs
     id="defs104"><inkscape:path-effect
       effect="fillet_chamfer"
       id="path-effect36345"
       is_visible="true"
       lpeversion="1"
       nodesatellites_param="F,0,0,1,0,36,0,1 @ F,0,0,1,0,36,0,1 @ F,0,0,1,0,36,0,1 @ F,0,0,1,0,36,0,1 | F,0,0,1,0,36,0,1 @ F,0,0,1,0,36,0,1 @ F,0,0,1,0,36,0,1 @ F,0,0,1,0,36,0,1 | F,0,0,1,0,36,0,1 @ F,0,0,1,0,36,0,1 @ F,0,0,1,0,36,0,1 @ F,0,0,1,0,36,0,1 | F,0,0,1,0,36,0,1 @ F,0,0,1,0,36,0,1 @ F,0,0,1,0,36,0,1 @ F,0,0,1,0,36,0,1 | F,0,0,1,0,36,0,1 @ F,0,0,1,0,36,0,1 @ F,0,0,1,0,36,0,1 @ F,0,0,1,0,36,0,1"
       unit="px"
       method="auto"
       mode="F"
       radius="36"
       chamfer_steps="1"
       flexible="false"
       use_knot_distance="true"
       apply_no_radius="true"
       apply_with_radius="true"
       only_selected="false"
       hide_knots="false" /><linearGradient
       inkscape:collect="always"
       id="linearGradient1471"><stop
         style="stop-color:#ad1f8e;stop-opacity:1;"
         offset="0.35640267"
         id="stop1467" /><stop
         style="stop-color:#ea1c25;stop-opacity:1;"
         offset="0.46000001"
         id="stop1473" /><stop
         style="stop-color:#f26921;stop-opacity:1;"
         offset="0.55000001"
         id="stop1475" /><stop
         style="stop-color:#ffc421;stop-opacity:1;"
         offset="0.63999999"
         id="stop5107" /><stop
         style="stop-color:#add136;stop-opacity:1;"
         offset="0.74000001"
         id="stop5109" /><stop
         style="stop-color:#58b947;stop-opacity:1;"
         offset="0.82999998"
         id="stop5111" /><stop
         style="stop-color:#00a6df;stop-opacity:1;"
         offset="0.92000002"
         id="stop5113" /><stop
         style="stop-color:#005fa1;stop-opacity:1;"
         offset="1"
         id="stop1469" /></linearGradient><linearGradient
       inkscape:collect="always"
       id="linearGradient1337"><stop
         style="stop-color:#eaede8;stop-opacity:0.99929899;"
         offset="0"
         id="stop1333" /><stop
         style="stop-color:#e8eaed;stop-opacity:0;"
         offset="1"
         id="stop1335" /></linearGradient><radialGradient
       inkscape:collect="always"
       xlink:href="#linearGradient1337"
       id="radialGradient1339"
       cx="479.99999"
       cy="-442.96003"
       fx="479.99999"
       fy="-442.96003"
       r="554.43564"
       gradientTransform="matrix(1,0,0,1.0024077,0,1.0665078)"
       gradientUnits="userSpaceOnUse" /><radialGradient
       inkscape:collect="always"
       xlink:href="#linearGradient1471"
       id="radialGradient1465"
       gradientUnits="userSpaceOnUse"
       gradientTransform="matrix(1,0,0,1.0024077,0,1.0665078)"
       cx="-447.93243"
       cy="-474.94296"
       fx="-447.93243"
       fy="-474.94296"
       r="554.43564" /><radialGradient
       inkscape:collect="always"
       xlink:href="#linearGradient1337"
       id="radialGradient23991"
       gradientUnits="userSpaceOnUse"
       gradientTransform="matrix(1,0,0,1.0024077,0,1.0665078)"
       cx="479.99999"
       cy="-442.96003"
       fx="479.99999"
       fy="-442.96003"
       r="554.43564" /></defs><sodipodi:namedview
     id="namedview102"
     pagecolor="#505050"
     bordercolor="#ffffff"
     borderopacity="1"
     inkscape:showpageshadow="0"
     inkscape:pageopacity="0"
     inkscape:pagecheckerboard="1"
     inkscape:deskcolor="#505050"
     showgrid="false"
     inkscape:zoom="27.812867"
     inkscape:cx="4.6021864"
     inkscape:cy="12.350399"
     inkscape:window-width="1488"
     inkscape:window-height="928"
     inkscape:window-x="48"
     inkscape:window-y="0"
     inkscape:window-maximized="1"
     inkscape:current-layer="g539" /><g
     id="g220"
     transform="matrix(0.66666667,0,0,0.66666667,160,-6.0772781)"><path
       d="m 272,-440 208,120 208,-120 -168,-97 v 137 h -80 v -137 z m 168,-189 v -17 q -44,-13 -72,-49.5 -28,-36.5 -28,-84.5 0,-58 41,-99 41,-41 99,-41 58,0 99,41 41,41 41,99 0,48 -28,84.5 -28,36.5 -72,49.5 v 17 l 280,161 q 19,11 29.5,29.5 10.5,18.5 10.5,40.5 v 76 q 0,22 -10.5,40.5 Q 819,-263 800,-252 L 520,-91 q -19,11 -40,11 -21,0 -40,-11 L 160,-252 Q 141,-263 130.5,-281.5 120,-300 120,-322 v -76 q 0,-22 10.5,-40.5 Q 141,-457 160,-468 Z m 0,378 -240,-138 v 67 l 280,162 280,-162 v -67 l -240,138 q -19,11 -40,11 -21,0 -40,-11 z m 40,-469 q 25,0 42.5,-17.5 Q 540,-755 540,-780 540,-805 522.5,-822.5 505,-840 480,-840 q -25,0 -42.5,17.5 -17.5,17.5 -17.5,42.5 0,25 17.5,42.5 17.5,17.5 42.5,17.5 z m 0,560 z"
       id="path98"
       style="fill:#b39e00;fill-opacity:1" /><path
       d="m 272,-440 208,120 208,-120 -168,-97 v 137 h -80 v -137 z"
       id="path98-7"
       style="fill:#a39100;fill-opacity:1"
       sodipodi:nodetypes="cccccccc" /><path
       d="M 440,-251 200,-389 v 67 l 280,162 279.99999,-162 v -67 L 520,-251 c -12.66667,7.33333 -26,11 -40,11 -14,0 -27.33333,-3.66667 -40,-11 z"
       id="path98-3"
       style="fill:#8c7c00;fill-opacity:1"
       sodipodi:nodetypes="cccccccsc" /></g><g
     style="fill:url(#radialGradient1339);fill-opacity:1"
     id="g161"
     transform="matrix(0.67333333,0,0,0.67333333,156.8,-227.29202)"><g
       id="g539"
       style="fill:url(#radialGradient23991);fill-opacity:1"><path
         id="path29809"
         style="fill:url(#radialGradient1465);fill-opacity:1;stroke-width:59.4059"
         d="m -968.0485,-516.64899 h 284.43562 a 36,36 45 0 1 36,36 v 17.10891 a 36,36 135 0 1 -36,36 H -968.0485 a 36,36 45 0 1 -36,-36 v -17.10891 a 36,36 135 0 1 36,-36 z m 399.03403,228.28961 -198.64507,203.577429 a 36.000001,36.000001 179.29743 0 1 -50.90786,0.624274 l -12.24526,-11.94858 a 35.999998,35.999998 89.297428 0 1 -0.62428,-50.907863 l 198.64508,-203.57743 a 35.999998,35.999998 179.29743 0 1 50.90785,-0.62427 l 12.24527,11.94857 a 36.000003,36.000003 89.297431 0 1 0.62427,50.90787 z m -72.70172,-305.51008 -203.57743,-198.64507 a 36,36 89.297429 0 1 -0.62428,-50.90786 l 11.94858,-12.24525 a 36,36 179.29743 0 1 50.90786,-0.62428 l 203.57743,198.64507 a 36,36 89.297429 0 1 0.62428,50.90786 l -11.94858,12.24525 a 36,36 179.29743 0 1 -50.90786,0.62428 z m 153.92924,638.289625 -3.48771,-284.414255 a 35.999999,35.999999 134.29743 0 1 35.55586,-36.43872 l 17.10763,-0.20978 a 36.000001,36.000001 44.297429 0 1 36.43872,35.55586 l 3.48771,284.414253 a 36,36 134.29743 0 1 -35.55586,36.438721 l -17.10763,0.209788 a 36,36 44.297429 0 1 -36.43872,-35.555867 z m -9.22627,-752.379075 -3.4877,-284.4142 a 36.000024,36.000024 134.29741 0 1 35.55586,-36.43879 l 17.10763,-0.2097 a 35.999976,35.999976 44.297411 0 1 36.43872,35.55579 l 3.4877,284.41426 a 36,36 134.29743 0 1 -35.55586,36.43872 l -17.10763,0.20978 a 36,36 44.29743 0 1 -36.43872,-35.55586 z"
         sodipodi:nodetypes="ccccccccccccccccccccccccc"
         transform="rotate(90.702571)"
         inkscape:path-effect="#path-effect36345"
         inkscape:original-d="m -1004.0485,-516.64899 h 356.43562 v 89.10891 h -356.43562 z m 460.17582,202.52354 -248.92865,255.109566 -63.7774,-62.232166 248.92866,-255.10957 z m -72.07744,-254.60222 -255.10957,-248.92865 62.23216,-63.77739 255.10957,248.92865 z m 128.6046,649.145129 -4.37057,-356.408839 89.10221,-1.09264 4.37057,356.408837 z m -9.22627,-752.379079 -4.37056,-356.40878 89.10221,-1.0927 4.37056,356.40884 z" /></g></g></svg>
